#Comment line ignore any data following # character 
#Hierarchical Translation and Rotation (.htr) file 
[Header]	
#Header keywords are followed by a single value 
FileType HTR		#Single word string
DataType HTRS		#Translation followed by rotation and scale data
FileVersion 1		#integer
NumSegments 84		#integer
NumFrames 2		#integer
DataFrameRate 30		#integer, data frame rate in this file
EulerRotationOrder ZYX
CalibrationUnits mm
RotationUnits Degrees
GlobalAxisofGravity Y
BoneLengthAxis Y
ScaleFactor 1.00
[SegmentNames&Hierarchy]
#CHILD	PARENT
MASTER GLOBAL
root MASTER
chest root
L_mid_tent01 root
R_mid_tent01 root
spine01 root
Bip01_Neck chest
L_humerus chest
R_humerus chest
weapon_bone chest
Bip01_Head Bip01_Neck
eye_left_bone Bip01_Head
eye_right_bone Bip01_Head
L_forearm L_humerus
L_front_hand L_forearm
L_weapon_bone L_forearm
L_front_hand01_01 L_front_hand
L_front_hand02_01 L_front_hand
L_front_hand03_01 L_front_hand
L_front_hand01_02 L_front_hand01_01
L_front_hand02_02 L_front_hand02_01
L_front_hand03_02 L_front_hand03_01
R_forearm R_humerus
R_front_hand R_forearm
R_weapon_bone R_forearm
R_front_hand01_01 R_front_hand
R_front_hand02_01 R_front_hand
R_front_hand03_01 R_front_hand
R_front_hand01_02 R_front_hand01_01
R_front_hand02_02 R_front_hand02_01
R_front_hand03_02 R_front_hand03_01
null_rope01_connect L_mid_tent01
Rope1_Seg01 null_rope01_connect
Rope1_Seg02 Rope1_Seg01
Rope1_Seg03 Rope1_Seg02
Rope1_Seg04 Rope1_Seg03
Rope1_Seg05 Rope1_Seg04
Rope1_Seg06 Rope1_Seg05
Rope1_Seg07 Rope1_Seg06
Rope1_Seg09 Rope1_Seg07
L_mid_hand01 Rope1_Seg09
L_mid_hand02 Rope1_Seg09
L_mid_hand03 Rope1_Seg09
null_rope02_connect R_mid_tent01
Rope2_Seg01 null_rope02_connect
Rope2_Seg02 Rope2_Seg01
Rope2_Seg03 Rope2_Seg02
Rope2_Seg04 Rope2_Seg03
Rope2_Seg05 Rope2_Seg04
Rope2_Seg06 Rope2_Seg05
Rope2_Seg07 Rope2_Seg06
Rope2_Seg09 Rope2_Seg07
R_mid_hand01 Rope2_Seg09
R_mid_hand02 Rope2_Seg09
R_mid_hand03 Rope2_Seg09
spine02 spine01
spine03 spine02
pelvis spine03
null_rope03_connect pelvis
null_rope04_connect pelvis
Rope3_Seg01 null_rope03_connect
Rope3_Seg02 Rope3_Seg01
Rope3_Seg03 Rope3_Seg02
Rope3_Seg04 Rope3_Seg03
Rope3_Seg05 Rope3_Seg04
Rope3_Seg06 Rope3_Seg05
Rope3_Seg07 Rope3_Seg06
Rope3_Seg08 Rope3_Seg07
Rope3_Seg09 Rope3_Seg08
R_rear_hand01 Rope3_Seg09
R_rear_hand02 Rope3_Seg09
R_rear_hand03 Rope3_Seg09
Rope4_Seg01 null_rope04_connect
Rope4_Seg02 Rope4_Seg01
Rope4_Seg03 Rope4_Seg02
Rope4_Seg04 Rope4_Seg03
Rope4_Seg05 Rope4_Seg04
Rope4_Seg06 Rope4_Seg05
Rope4_Seg07 Rope4_Seg06
Rope4_Seg08 Rope4_Seg07
Rope4_Seg09 Rope4_Seg08
L_rear_hand01 Rope4_Seg09
L_rear_hand02 Rope4_Seg09
L_rear_hand03 Rope4_Seg09
[BasePosition]
#SegmentName Tx, Ty, Tz, Rx, Ry, Rz, BoneLength
MASTER 0.000000 0.000000 0.000000 -90.000000 0.000000 0.000000 10.000000 
root 0.000000 0.000000 0.000000 0.000000 0.000000 0.000000 10.000000 
chest 0.000000 0.000000 0.000000 0.000000 0.000000 0.000000 10.000000 
L_mid_tent01 0.000000 0.000000 0.000000 0.000000 0.000000 0.000000 10.000000 
R_mid_tent01 0.000000 0.000000 0.000000 0.000000 0.000000 0.000000 10.000000 
spine01 0.000000 0.000000 0.000000 0.000000 0.000000 0.000000 10.000000 
Bip01_Neck 0.000000 0.000000 0.000000 0.000000 0.000000 0.000000 10.000000 
L_humerus 0.000000 0.000000 0.000000 0.000000 0.000000 0.000000 10.000000 
R_humerus 0.000000 0.000000 0.000000 0.000000 0.000000 0.000000 10.000000 
weapon_bone 0.000000 0.000000 0.000000 0.000000 0.000000 0.000000 10.000000 
Bip01_Head 0.000000 0.000000 0.000000 0.000000 0.000000 0.000000 10.000000 
eye_left_bone 0.000000 0.000000 0.000000 0.000000 0.000000 0.000000 10.000000 
eye_right_bone 0.000000 0.000000 0.000000 0.000000 0.000000 0.000000 10.000000 
L_forearm 0.000000 0.000000 0.000000 0.000000 0.000000 0.000000 10.000000 
L_front_hand 0.000000 0.000000 0.000000 0.000000 0.000000 0.000000 10.000000 
L_weapon_bone 0.000000 0.000000 0.000000 0.000000 0.000000 0.000000 10.000000 
L_front_hand01_01 0.000000 0.000000 0.000000 0.000000 0.000000 0.000000 10.000000 
L_front_hand02_01 0.000000 0.000000 0.000000 0.000000 0.000000 0.000000 10.000000 
L_front_hand03_01 0.000000 0.000000 0.000000 0.000000 0.000000 0.000000 10.000000 
L_front_hand01_02 0.000000 0.000000 0.000000 0.000000 0.000000 0.000000 10.000000 
L_front_hand02_02 0.000000 0.000000 0.000000 0.000000 0.000000 0.000000 10.000000 
L_front_hand03_02 0.000000 0.000000 0.000000 0.000000 0.000000 0.000000 10.000000 
R_forearm 0.000000 0.000000 0.000000 0.000000 0.000000 0.000000 10.000000 
R_front_hand 0.000000 0.000000 0.000000 0.000000 0.000000 0.000000 10.000000 
R_weapon_bone 0.000000 0.000000 0.000000 0.000000 0.000000 0.000000 10.000000 
R_front_hand01_01 0.000000 0.000000 0.000000 0.000000 0.000000 0.000000 10.000000 
R_front_hand02_01 0.000000 0.000000 0.000000 0.000000 0.000000 0.000000 10.000000 
R_front_hand03_01 0.000000 0.000000 0.000000 0.000000 0.000000 0.000000 10.000000 
R_front_hand01_02 0.000000 0.000000 0.000000 0.000000 0.000000 0.000000 10.000000 
R_front_hand02_02 0.000000 0.000000 0.000000 0.000000 0.000000 0.000000 10.000000 
R_front_hand03_02 0.000000 0.000000 0.000000 0.000000 0.000000 0.000000 10.000000 
null_rope01_connect 0.000000 0.000000 0.000000 0.000000 0.000000 0.000000 10.000000 
Rope1_Seg01 0.000000 0.000000 0.000000 0.000000 0.000000 0.000000 10.000000 
Rope1_Seg02 0.000000 0.000000 0.000000 0.000000 0.000000 0.000000 10.000000 
Rope1_Seg03 0.000000 0.000000 0.000000 0.000000 0.000000 0.000000 10.000000 
Rope1_Seg04 0.000000 0.000000 0.000000 0.000000 0.000000 0.000000 10.000000 
Rope1_Seg05 0.000000 0.000000 0.000000 0.000000 0.000000 0.000000 10.000000 
Rope1_Seg06 0.000000 0.000000 0.000000 0.000000 0.000000 0.000000 10.000000 
Rope1_Seg07 0.000000 0.000000 0.000000 0.000000 0.000000 0.000000 10.000000 
Rope1_Seg09 0.000000 0.000000 0.000000 0.000000 0.000000 0.000000 10.000000 
L_mid_hand01 0.000000 0.000000 0.000000 0.000000 0.000000 0.000000 10.000000 
L_mid_hand02 0.000000 0.000000 0.000000 0.000000 0.000000 0.000000 10.000000 
L_mid_hand03 0.000000 0.000000 0.000000 0.000000 0.000000 0.000000 10.000000 
null_rope02_connect 0.000000 0.000000 0.000000 0.000000 0.000000 0.000000 10.000000 
Rope2_Seg01 0.000000 0.000000 0.000000 0.000000 0.000000 0.000000 10.000000 
Rope2_Seg02 0.000000 0.000000 0.000000 0.000000 0.000000 0.000000 10.000000 
Rope2_Seg03 0.000000 0.000000 0.000000 0.000000 0.000000 0.000000 10.000000 
Rope2_Seg04 0.000000 0.000000 0.000000 0.000000 0.000000 0.000000 10.000000 
Rope2_Seg05 0.000000 0.000000 0.000000 0.000000 0.000000 0.000000 10.000000 
Rope2_Seg06 0.000000 0.000000 0.000000 0.000000 0.000000 0.000000 10.000000 
Rope2_Seg07 0.000000 0.000000 0.000000 0.000000 0.000000 0.000000 10.000000 
Rope2_Seg09 0.000000 0.000000 0.000000 0.000000 0.000000 0.000000 10.000000 
R_mid_hand01 0.000000 0.000000 0.000000 0.000000 0.000000 0.000000 10.000000 
R_mid_hand02 0.000000 0.000000 0.000000 0.000000 0.000000 0.000000 10.000000 
R_mid_hand03 0.000000 0.000000 0.000000 0.000000 0.000000 0.000000 10.000000 
spine02 0.000000 0.000000 0.000000 0.000000 0.000000 0.000000 10.000000 
spine03 0.000000 0.000000 0.000000 0.000000 0.000000 0.000000 10.000000 
pelvis 0.000000 0.000000 0.000000 0.000000 0.000000 0.000000 10.000000 
null_rope03_connect 0.000000 0.000000 0.000000 0.000000 0.000000 0.000000 10.000000 
null_rope04_connect 0.000000 0.000000 0.000000 0.000000 0.000000 0.000000 10.000000 
Rope3_Seg01 0.000000 0.000000 0.000000 0.000000 0.000000 0.000000 10.000000 
Rope3_Seg02 0.000000 0.000000 0.000000 0.000000 0.000000 0.000000 10.000000 
Rope3_Seg03 0.000000 0.000000 0.000000 0.000000 0.000000 0.000000 10.000000 
Rope3_Seg04 0.000000 0.000000 0.000000 0.000000 0.000000 0.000000 10.000000 
Rope3_Seg05 0.000000 0.000000 0.000000 0.000000 0.000000 0.000000 10.000000 
Rope3_Seg06 0.000000 0.000000 0.000000 0.000000 0.000000 0.000000 10.000000 
Rope3_Seg07 0.000000 0.000000 0.000000 0.000000 0.000000 0.000000 10.000000 
Rope3_Seg08 0.000000 0.000000 0.000000 0.000000 0.000000 0.000000 10.000000 
Rope3_Seg09 0.000000 0.000000 0.000000 0.000000 0.000000 0.000000 10.000000 
R_rear_hand01 0.000000 0.000000 0.000000 0.000000 0.000000 0.000000 10.000000 
R_rear_hand02 0.000000 0.000000 0.000000 0.000000 0.000000 0.000000 10.000000 
R_rear_hand03 0.000000 0.000000 0.000000 0.000000 0.000000 0.000000 10.000000 
Rope4_Seg01 0.000000 0.000000 0.000000 0.000000 0.000000 0.000000 10.000000 
Rope4_Seg02 0.000000 0.000000 0.000000 0.000000 0.000000 0.000000 10.000000 
Rope4_Seg03 0.000000 0.000000 0.000000 0.000000 0.000000 0.000000 10.000000 
Rope4_Seg04 0.000000 0.000000 0.000000 0.000000 0.000000 0.000000 10.000000 
Rope4_Seg05 0.000000 0.000000 0.000000 0.000000 0.000000 0.000000 10.000000 
Rope4_Seg06 0.000000 0.000000 0.000000 0.000000 0.000000 0.000000 10.000000 
Rope4_Seg07 0.000000 0.000000 0.000000 0.000000 0.000000 0.000000 10.000000 
Rope4_Seg08 0.000000 0.000000 0.000000 0.000000 0.000000 0.000000 10.000000 
Rope4_Seg09 0.000000 0.000000 0.000000 0.000000 0.000000 0.000000 10.000000 
L_rear_hand01 0.000000 0.000000 0.000000 0.000000 0.000000 0.000000 10.000000 
L_rear_hand02 0.000000 0.000000 0.000000 0.000000 0.000000 0.000000 10.000000 
L_rear_hand03 0.000000 0.000000 0.000000 0.000000 0.000000 0.000000 10.000000 
#Beginning of Data. Separated by tabs
#Fr	Tx	Ty	Tz	Rx	Ry	Rz	SF
[MASTER]
19 0.000000 0.000000 0.000000 0.001660 0.001660 0.001660 0.000000
20 0.000000 0.000000 0.000000 0.001660 0.001660 0.001660 0.000000
[root]
19 580.836060 -51.645069 1430.119141 -90.061798 -33.810837 -88.943146 1544.434814
20 574.033752 -41.104137 1448.392212 -88.249657 -31.894337 -88.297340 1558.539185
[chest]
19 -84.512650 -34.090519 0.000000 5.079628 2.480278 172.164429 91.129311
20 -84.512650 -34.090519 0.000000 4.861461 2.352232 172.249390 91.129311
[L_mid_tent01]
19 27.299185 22.178858 -249.918594 -9.023477 32.113079 51.088688 252.381561
20 27.299179 22.178881 -249.918594 -10.112463 31.226545 48.672573 252.381561
[R_mid_tent01]
19 23.228794 24.509907 226.238495 170.609299 -27.076807 68.369194 228.744751
20 23.228794 24.509907 226.238495 172.134766 -27.052393 65.765167 228.744751
[spine01]
19 -0.361383 -0.195265 0.000000 0.001927 0.001341 20.313334 0.410763
20 -0.361383 -0.195265 0.000000 0.001928 0.001340 20.409922 0.410763
[Bip01_Neck]
19 165.484543 71.581718 0.000119 176.643677 -1.657967 43.431911 180.302734
20 165.484543 71.581718 0.000119 176.643677 -1.657967 43.431911 180.302734
[L_humerus]
19 -13.983130 -135.272980 -120.471481 168.998184 37.679348 -157.139786 181.680161
20 -13.983130 -135.272980 -120.471481 166.998962 40.747208 -156.457245 181.680161
[R_humerus]
19 -13.983309 -135.273102 125.287651 -168.854904 -25.784649 -144.249435 184.909012
20 -13.983309 -135.273102 125.287651 -167.246475 -29.332172 -142.833496 184.909012
[weapon_bone]
19 235.964890 -300.705902 0.000000 0.000000 -89.951546 -128.212341 382.234833
20 235.964890 -300.705902 0.000000 0.000000 -89.951546 -128.212341 382.234833
[Bip01_Head]
19 213.444214 185.715500 11.776926 1.900670 10.246602 -41.147217 283.173767
20 213.444214 185.715500 11.776926 2.419886 9.315346 -41.492149 283.173767
[eye_left_bone]
19 -24.626970 125.451866 -64.772606 0.000000 -90.000000 -99.840431 143.318359
20 -24.626970 125.451866 -64.772606 0.000000 -90.000000 -99.840431 143.318359
[eye_right_bone]
19 -24.626970 125.451866 64.327362 0.000000 -89.965736 80.156380 143.117676
20 -24.626970 125.451866 64.327362 0.000000 -89.965736 80.156380 143.117676
[L_forearm]
19 322.776093 0.000000 -0.000119 0.000039 -0.002347 -91.887009 322.776093
20 322.776093 0.000000 -0.000119 0.000101 -0.002345 -94.951447 322.776093
[L_front_hand]
19 241.149185 -0.042021 -3.300071 149.893951 -1.837326 -27.423067 241.171753
20 241.149185 -0.042021 -3.300071 149.893951 -1.837327 -27.423069 241.171753
[L_weapon_bone]
19 156.183838 0.000000 0.000000 0.000014 0.000007 0.000001 156.183838
20 156.183838 0.000000 0.000000 0.000014 0.000007 0.000001 156.183838
[L_front_hand01_01]
19 86.095154 20.947098 -0.655860 -0.366594 -0.477154 75.385574 88.609184
20 86.095154 20.947098 -0.655860 -0.366594 -0.477154 75.385574 88.609184
[L_front_hand02_01]
19 86.935165 -11.437475 24.513514 154.399796 -59.883835 -61.369587 91.046425
20 86.935165 -11.437475 24.513514 154.399796 -59.883835 -61.369587 91.046425
[L_front_hand03_01]
19 86.637497 -14.123976 -20.424902 -153.913849 58.118122 -62.702866 90.126129
20 86.637497 -14.123976 -20.424902 -153.913849 58.118122 -62.702866 90.126129
[L_front_hand01_02]
19 71.020905 -0.000179 0.000030 0.000334 -0.002323 -106.379684 71.020905
20 71.020905 -0.000179 0.000030 0.000334 -0.002323 -106.379684 71.020905
[L_front_hand02_02]
19 71.020927 -0.000119 0.000060 0.000334 -0.002323 -106.379684 71.020927
20 71.020927 -0.000119 0.000060 0.000334 -0.002323 -106.379684 71.020927
[L_front_hand03_02]
19 71.020905 -0.000060 0.000060 0.000334 -0.002323 -106.379684 71.020905
20 71.020905 -0.000060 0.000060 0.000334 -0.002323 -106.379684 71.020905
[R_forearm]
19 322.776428 -0.000060 0.000030 0.205699 -0.048697 -77.291252 322.776428
20 322.776428 -0.000060 0.000030 0.207770 -0.034725 -81.175659 322.776428
[R_front_hand]
19 238.847015 -0.006795 2.210259 -8.879457 -10.642940 -26.315094 238.857239
20 238.847015 -0.006795 2.210259 -8.879457 -10.642941 -26.315098 238.857239
[R_weapon_bone]
19 155.664093 0.002503 -0.000030 0.003487 0.001180 -90.988930 155.664078
20 155.664093 0.002503 -0.000030 0.003487 0.001180 -90.988930 155.664078
[R_front_hand01_01]
19 87.624611 14.231146 22.918642 -154.633499 -59.950619 61.746044 91.683487
20 87.624611 14.231146 22.918642 -154.633499 -59.950619 61.746044 91.683487
[R_front_hand02_01]
19 89.356956 14.367283 -19.491137 154.602661 58.302849 63.744389 92.579636
20 89.356956 14.367283 -19.491137 154.602661 58.302849 63.744389 92.579636
[R_front_hand03_01]
19 87.286232 -22.307278 -0.143439 0.162155 -0.423168 -75.767921 90.091743
20 87.286232 -22.307278 -0.143439 0.162155 -0.423168 -75.767921 90.091743
[R_front_hand01_02]
19 71.020905 0.000060 0.000119 0.002323 -0.000334 106.381714 71.020905
20 71.020905 0.000060 0.000119 0.002323 -0.000334 106.381714 71.020905
[R_front_hand02_02]
19 71.020844 -0.000030 -0.000119 0.002323 -0.000334 106.381714 71.020836
20 71.020844 -0.000030 -0.000119 0.002323 -0.000334 106.381714 71.020836
[R_front_hand03_02]
19 71.020905 0.000000 0.000030 0.002323 -0.000334 106.381714 71.020905
20 71.020905 0.000000 0.000030 0.002323 -0.000334 106.381714 71.020905
[null_rope01_connect]
19 328.732483 0.000000 -0.000238 -124.867836 -57.584759 -164.839706 328.732483
20 328.732483 0.000000 -0.000238 -126.359566 -60.328186 -163.183502 328.732483
[Rope1_Seg01]
19 0.000019 -0.000052 0.000076 -148.761078 51.685833 -128.760727 0.000095
20 0.000022 -0.000052 0.000081 -130.310410 52.673721 -119.327026 0.000098
[Rope1_Seg02]
19 139.999863 -0.000179 0.000000 -14.527034 8.054682 0.817675 139.999863
20 139.999863 -0.000179 0.000000 -14.524240 8.130834 0.788205 139.999863
[Rope1_Seg03]
19 139.999924 0.000060 -0.000060 -3.369298 1.768661 0.187159 139.999924
20 139.999924 0.000060 -0.000060 -2.691787 1.396431 0.196426 139.999924
[Rope1_Seg04]
19 139.999924 -0.000060 -0.000119 -17.090902 6.171503 3.978090 139.999924
20 139.999924 -0.000060 -0.000119 -18.855902 7.186903 3.826370 139.999924
[Rope1_Seg05]
19 139.999832 0.000119 -0.000060 -17.201208 5.157001 6.546250 139.999832
20 139.999832 0.000119 -0.000060 -19.287474 6.077805 6.760335 139.999832
[Rope1_Seg06]
19 139.999954 0.000119 -0.000060 -7.229107 1.570736 3.957294 139.999954
20 139.999954 0.000119 -0.000060 -7.723215 1.725908 4.085104 139.999954
[Rope1_Seg07]
19 139.999985 0.000060 0.000000 -4.241355 0.719098 2.796350 139.999985
20 139.999985 0.000060 0.000000 -4.403464 0.763940 2.828419 139.999985
[Rope1_Seg09]
19 121.602913 0.000119 -0.000089 -89.793175 -1.359789 0.847147 121.602913
20 121.602913 0.000119 -0.000089 -89.793175 -1.359789 0.847147 121.602913
[L_mid_hand01]
19 103.859421 1.038730 8.195221 109.056198 -40.604698 -13.201401 104.187431
20 103.859421 1.038730 8.195221 109.056198 -40.604698 -13.201401 104.187431
[L_mid_hand02]
19 105.572853 -4.139662 -10.864139 -146.713593 31.476528 -37.902313 106.211075
20 105.572853 -4.139662 -10.864139 -146.713593 31.476528 -37.902313 106.211075
[L_mid_hand03]
19 104.641464 17.579376 -3.913581 -14.267233 12.322316 43.898396 106.179977
20 104.641464 17.579376 -3.913581 -14.267233 12.322316 43.898396 106.179977
[null_rope02_connect]
19 328.732849 0.000179 -0.000119 -104.048798 60.477657 18.332447 328.732849
20 328.732849 0.000179 -0.000119 -108.094955 58.955292 13.747973 328.732849
[Rope2_Seg01]
19 0.000029 0.000095 0.000057 129.405792 21.430738 -51.746613 0.000115
20 0.000032 0.000096 0.000054 96.680252 16.930471 -49.301311 0.000115
[Rope2_Seg02]
19 139.999741 -0.000060 -0.000119 -12.506824 -2.318641 4.177845 139.999756
20 139.999741 -0.000060 -0.000119 5.158119 -3.761353 0.654418 139.999756
[Rope2_Seg03]
19 140.000107 0.000030 0.000000 -4.463068 -3.362219 3.009866 140.000107
20 140.000107 0.000030 0.000000 4.184153 -3.870906 0.588111 140.000107
[Rope2_Seg04]
19 139.999802 0.000000 -0.000060 -0.942872 -3.919039 2.147140 139.999802
20 139.999802 0.000000 -0.000060 5.216190 -4.772889 0.230071 139.999802
[Rope2_Seg05]
19 139.999985 -0.000060 0.000119 -8.016085 0.651811 3.402238 139.999985
20 139.999985 -0.000060 0.000119 -7.837620 1.419144 2.234693 139.999985
[Rope2_Seg06]
19 139.999893 -0.000030 -0.000119 -11.833568 2.582804 4.305745 139.999893
20 139.999893 -0.000030 -0.000119 -18.239622 4.805848 3.757956 139.999893
[Rope2_Seg07]
19 139.999893 0.000060 -0.000060 -6.596924 0.377911 3.002123 139.999893
20 139.999893 0.000060 -0.000060 -11.045270 1.503044 2.932626 139.999893
[Rope2_Seg09]
19 121.338966 0.000089 -0.000060 33.793236 -1.359788 -0.847141 121.338966
20 121.338966 0.000089 -0.000060 33.793236 -1.359788 -0.847141 121.338966
[R_mid_hand01]
19 104.680779 11.144459 -10.335981 -37.204079 31.906813 37.576260 105.778534
20 104.680779 11.144459 -10.335981 -37.204079 31.906813 37.576260 105.778534
[R_mid_hand02]
19 104.070427 2.443552 8.231699 70.367462 -42.427391 14.067809 104.424065
20 104.070427 2.443552 8.231699 70.367462 -42.427391 14.067809 104.424065
[R_mid_hand03]
19 106.028137 -11.221827 -5.996406 -169.893616 12.226661 -47.211018 106.788818
20 106.028137 -11.221827 -5.996406 -169.893616 12.226661 -47.211018 106.788818
[spine02]
19 129.756927 0.001550 0.000119 -0.021746 -4.060602 -7.544275 129.756927
20 129.756927 0.001550 0.000119 -0.000536 -4.060796 -7.843982 129.756927
[spine03]
19 78.614044 0.082874 -4.898978 1.669643 3.935066 13.127419 78.766586
20 78.614044 0.082814 -4.898979 1.682322 3.929697 13.313739 78.766586
[pelvis]
19 169.435242 0.051022 0.000000 -0.036693 -0.186630 7.325253 169.435257
20 169.435242 0.051022 0.000000 -0.037934 -0.186300 7.702964 169.435257
[null_rope03_connect]
19 -1.257226 -2.466202 137.391083 64.535629 -88.534462 26.071487 137.418976
20 -1.257226 -2.466202 137.391083 53.029133 -86.352020 35.268261 137.418976
[null_rope04_connect]
19 -1.259640 -2.480268 -137.844437 64.535629 -88.534462 26.071487 137.872513
20 -1.259640 -2.480268 -137.844437 53.029133 -86.352020 35.268261 137.872513
[Rope3_Seg01]
19 0.000010 0.000038 -0.000114 -139.693634 -43.085018 -70.302704 0.000121
20 0.000010 0.000038 -0.000114 -136.320435 -38.364319 -73.762894 0.000121
[Rope3_Seg02]
19 139.999924 -0.000119 0.000060 0.836013 -2.216370 1.622908 139.999924
20 139.999924 -0.000119 0.000060 0.483622 -1.977413 0.161484 139.999924
[Rope3_Seg03]
19 139.999924 -0.000119 0.000119 1.089003 -1.829007 5.080881 139.999924
20 139.999924 -0.000119 0.000119 0.776222 -1.826377 3.249413 139.999924
[Rope3_Seg04]
19 139.999924 0.000119 0.000000 0.842902 -1.189924 8.274917 139.999924
20 139.999924 0.000119 0.000000 0.789413 -1.464883 7.782898 139.999924
[Rope3_Seg05]
19 139.999924 -0.000238 0.000060 -1.381034 -2.776128 -17.362703 139.999924
20 139.999924 -0.000238 0.000060 -1.667122 -1.997320 -17.545378 139.999924
[Rope3_Seg06]
19 139.999893 -0.000119 -0.000060 -14.742258 -2.866282 -34.765217 139.999893
20 139.999893 -0.000119 -0.000060 -15.982356 -1.282649 -35.062939 139.999893
[Rope3_Seg07]
19 139.999771 0.000060 -0.000119 -17.377148 2.482639 -14.752592 139.999771
20 139.999771 0.000060 -0.000119 -17.010601 3.384433 -14.492137 139.999771
[Rope3_Seg08]
19 139.999985 -0.000060 0.000000 -12.182030 3.244403 -6.492614 139.999985
20 139.999985 -0.000060 0.000000 -11.021856 3.520581 -6.181532 139.999985
[Rope3_Seg09]
19 90.185997 -0.000179 -0.000060 89.793228 -1.359877 -0.847183 90.185997
20 90.185997 -0.000179 -0.000060 89.793228 -1.359877 -0.847183 90.185997
[R_rear_hand01]
19 103.366196 -6.073594 -10.757982 -164.755127 19.627697 -40.352161 104.101845
20 103.366196 -6.073594 -10.757982 -164.755127 19.627697 -40.352161 104.101845
[R_rear_hand02]
19 100.509819 12.039542 -7.992327 -30.792652 24.782448 38.141541 101.543350
20 100.509819 12.039542 -7.992327 -30.792652 24.782448 38.141541 101.543350
[R_rear_hand03]
19 101.539970 5.215704 5.435467 82.448349 -41.048256 8.840378 101.819031
20 101.539970 5.215704 5.435467 82.448349 -41.048256 8.840378 101.819031
[Rope4_Seg01]
19 -0.000014 -0.000038 -0.000153 80.728294 -38.916714 -145.376526 0.000158
20 -0.000014 -0.000036 -0.000153 73.025032 -36.285782 -138.052689 0.000157
[Rope4_Seg02]
19 139.999985 0.000060 0.000119 14.942502 -10.866781 12.257558 139.999985
20 139.999985 0.000060 0.000119 11.633978 -10.884914 10.931103 139.999985
[Rope4_Seg03]
19 139.999924 0.000000 -0.000238 12.907209 -0.881179 16.097486 139.999924
20 139.999924 0.000000 -0.000238 12.017206 -2.843451 15.863350 139.999924
[Rope4_Seg04]
19 139.999985 0.000000 0.000119 6.578307 0.666826 10.557083 139.999985
20 139.999985 0.000000 0.000119 6.885255 -0.796244 11.159442 139.999985
[Rope4_Seg05]
19 139.999802 -0.000060 -0.000119 10.221671 -21.141880 1.175408 139.999802
20 139.999802 -0.000060 -0.000119 10.150604 -23.534962 -1.149643 139.999802
[Rope4_Seg06]
19 139.999924 0.000000 0.000060 26.278761 -22.383160 2.585224 139.999924
20 139.999924 0.000000 0.000060 28.259237 -23.014175 0.405907 139.999924
[Rope4_Seg07]
19 139.999802 0.000000 0.000000 21.132711 -6.652089 5.520963 139.999802
20 139.999802 0.000000 0.000000 26.766104 -7.130122 5.172756 139.999802
[Rope4_Seg08]
19 139.999924 0.000000 0.000119 11.174120 -2.267753 4.134798 139.999924
20 139.999924 0.000000 0.000119 14.543346 -2.172826 4.253464 139.999924
[Rope4_Seg09]
19 90.185791 0.000060 0.000060 -135.617828 2.228885 0.850567 90.185791
20 90.185791 0.000060 0.000060 -135.617828 2.228885 0.850567 90.185791
[L_rear_hand01]
19 101.696655 -8.392275 -7.654577 -31.684452 -23.583008 144.025742 102.329041
20 101.696655 -8.392275 -7.654577 -31.684452 -23.583008 144.025742 102.329041
[L_rear_hand02]
19 102.726799 -1.568258 5.773216 82.701553 38.753956 171.553619 102.900848
20 102.726799 -1.568258 5.773216 82.701553 38.753956 171.553619 102.900848
[L_rear_hand03]
19 104.552910 9.721220 -10.420293 -163.975403 -19.004421 -142.009338 105.519653
20 104.552910 9.721220 -10.420293 -163.975403 -19.004421 -142.009338 105.519653
